<svg width="210" height="172" viewBox="0 0 210 172" class="css-1j8o68f"><defs id="SvgjsDefs1114"></defs><g id="SvgjsG1115" featurekey="rootContainer" transform="matrix(1,0,0,1,0,0)" fill="white"><rect y="0" height="1" width="1" opacity="0"></rect><rect y="167" width="210" height="5"></rect></g><g id="SvgjsG1116" featurekey="symbolFeature-0" transform="matrix(0.16768325359368572,0,0,0.16768325359368572,62.51491355054699,11.073163839318333)" fill="white"><path xmlns="http://www.w3.org/2000/svg" d="M448.085,222.18H115.542l-1.049-11.636l322.271-105.979c6.984-2.297,10.784-9.821,8.487-16.806l-12.264-37.292  c-2.297-6.985-9.82-10.785-16.806-8.488L57.124,160.473c-4.195,1.384-6.882,5.478-6.483,9.878l9.978,110.064  c0.397,4.353,4.246,7.558,8.598,7.16l0.512-0.041v164.738c0,10.172,8.246,18.418,18.418,18.418h343.902  c10.172,0,18.418-8.246,18.418-18.418V287.839c6.216-1.123,10.936-6.55,10.936-13.089v-39.257  C461.399,228.141,455.438,222.18,448.085,222.18z M246.027,235.66h66.454l-40.144,38.869h-66.453L246.027,235.66z M287.939,379.119  l3.912,22.076c0.824,4.656-4.223,8.207-8.541,6.009l-20.477-10.425c-1.715-0.872-3.764-0.872-5.479,0l-20.477,10.425  c-4.318,2.198-9.365-1.353-8.54-6.009l3.911-22.076c0.327-1.85-0.306-3.735-1.693-5.045l-16.566-15.637  c-3.493-3.297-1.565-9.041,3.262-9.721l22.894-3.221c1.917-0.27,3.574-1.436,4.432-3.118l10.238-20.087  c2.16-4.236,8.398-4.236,10.556,0l10.238,20.087c0.857,1.683,2.515,2.849,4.432,3.118l22.895,3.221  c4.826,0.68,6.755,6.424,3.263,9.721l-16.565,15.637C288.247,375.384,287.613,377.271,287.939,379.119z M240.999,154.676  L191.13,130.49l63.096-20.774l49.87,24.187L240.999,154.676z M125.648,152.049l49.869,24.187l-62.268,20.501l-1.447-16.055  c-0.784-8.697-5.955-15.938-13.129-19.751L125.648,152.049z M433.87,91.175l-59.545,19.604l-49.869-24.186l65.518-21.572  L433.87,91.175z M71.715,184.444c-0.492-5.479,3.551-10.32,9.031-10.813c5.48-0.492,10.321,3.551,10.813,9.031  c0.492,5.479-3.551,10.32-9.031,10.813C77.048,193.968,72.207,189.924,71.715,184.444z M89.469,270.77  c-5.48,0.492-10.321-3.552-10.813-9.031c-0.492-5.479,3.551-10.32,9.031-10.813c5.48-0.492,10.321,3.551,10.813,9.031  C98.992,265.436,94.949,270.275,89.469,270.77z M114.641,274.527c3.095-4.579,4.7-10.209,4.166-16.145l-2.049-22.724h55.304  l-40.143,38.868H114.641z M354.122,441.903h-0.445H166.515h-0.445c-3.21,0-5.812-2.978-5.812-6.65c0-3.672,2.602-6.65,5.812-6.65  h0.445h187.162h0.445c3.21,0,5.813,2.979,5.813,6.65C359.935,438.927,357.332,441.903,354.122,441.903z M407.755,274.527h-66.453  l40.144-38.868h66.453L407.755,274.527z"></path></g><g id="SvgjsG1117" featurekey="nameFeature-0" transform="matrix(1.5839852053837193,0,0,1.5839852053837193,0.000001132954505956449,92.00593012126512)" fill="white"><path d="M10.36 17.36 c2.6 0 4.72 2.12 4.72 4.72 l0 17.8 l-3.76 0 l0 -17.8 c0 -0.52 -0.44 -0.92 -0.96 -0.92 s-0.92 0.4 -0.92 0.92 l0 17.8 l-3.8 0 l0 -17.8 c0 -0.52 -0.4 -0.92 -0.92 -0.92 s-0.96 0.4 -0.96 0.92 l0 18 l-3.76 0 l0 -23.48 l3.76 0 l0 0.88 c0.32 -0.08 0.64 -0.12 0.96 -0.12 c1.04 0 2.04 0.36 2.84 0.96 c0.76 -0.6 1.76 -0.96 2.8 -0.96 z M22.907000000000004 40.04 c-3 0 -5.4 -2.44 -5.4 -5.4 l0 -11.88 c0 -2.96 2.4 -5.4 5.4 -5.4 c2.96 0 5.36 2.44 5.36 5.4 l0 11.88 c0 2.96 -2.4 5.4 -5.36 5.4 z M22.907000000000004 21.2 c-0.88 0 -1.56 0.72 -1.56 1.56 l0 11.88 c0 0.88 0.68 1.56 1.56 1.56 c0.84 0 1.56 -0.68 1.56 -1.56 l0 -11.88 c0 -0.84 -0.72 -1.56 -1.56 -1.56 z M33.054 39.96 c-0.4 -3.4 -0.96 -6.8 -1.48 -10.12 c-0.6 -3.88 -1.28 -8.28 -1.72 -12.36 l3.88 0 c0.32 3.12 0.76 6.24 1.24 9.28 c0.04 -0.2 0.08 -0.4 0.08 -0.56 c0.16 -1.6 0.36 -3.12 0.52 -4.56 c0.2 -1.4 0.36 -2.76 0.48 -4.08 l3.8 0 c-0.12 1.44 -0.28 3.2 -0.48 4.6 s-0.36 2.88 -0.52 4.4 l0 0.16 c-0.44 2.76 -0.8 5.48 -1.16 8.12 c-0.2 1.68 -0.44 3.44 -0.68 5.16 l-3.96 0 l0 -0.04 z M46.081 39.88 c0.04 -6.28 0.04 -16.32 0 -22.52 l-3.8 0.04 c0.04 6.16 0.04 16.16 0 22.44 z M42.281000000000006 12.600000000000001 l3.8 0 l0 3.72 l-3.8 0 l0 -3.72 z M53.748000000000005 39.92 c-2.88 0 -5.2 -2.36 -5.2 -5.24 l0 -12.48 c0 -2.64 2.16 -4.8 4.8 -4.8 l0.84 0 c2.64 0 4.8 2.16 4.8 4.8 l0 5.24 l-6.72 0.12 l0 7.12 c0 0.84 0.64 1.52 1.48 1.52 s1.52 -0.68 1.52 -1.52 l0 -2.48 l3.72 0 l0 2.48 c0 2.88 -2.36 5.24 -5.24 5.24 z M54.188 21.08 l-0.84 0 c-0.6 0 -1.08 0.52 -1.08 1.12 l0 1.68 l3 -0.08 l0 -1.6 c0 -0.6 -0.48 -1.12 -1.08 -1.12 z M76.242 36.16 l0 3.8 l-1.16 0 c-2.88 0 -5.24 -2.36 -5.24 -5.24 l0 -23.28 l3.8 0 l0 23.28 c0 0.76 0.64 1.44 1.44 1.44 l1.16 0 z M82.469 39.88 c0.04 -6.28 0.04 -16.32 0 -22.52 l-3.8 0.04 c0.04 6.16 0.04 16.16 0 22.44 z M78.669 12.600000000000001 l3.8 0 l0 3.72 l-3.8 0 l0 -3.72 z M90.29599999999999 39.96 c-2.96 0 -5.36 -2.4 -5.36 -5.36 l0 -3.12 l3.8 0 l0 3.12 c0 0.88 0.72 1.56 1.56 1.56 c0.88 0 1.56 -0.68 1.56 -1.56 l0 -1.72 l-6.92 -7.16 l0 -3.16 c0 -2.96 2.4 -5.4 5.36 -5.4 s5.36 2.44 5.36 5.4 l0 2.48 l-3.8 0 l0 -2.48 c0 -0.88 -0.68 -1.56 -1.56 -1.56 c-0.84 0 -1.56 0.68 -1.56 1.56 l0 1.6 l6.92 7.2 l0 3.24 c0 2.96 -2.4 5.36 -5.36 5.36 z M106.883 21.2 l-2.72 0 l0 12.76 c0 1.2 1 2.16 2.2 2.16 l0 3.84 c-3.32 0 -6 -2.68 -6 -6 l0 -12.76 l-2.72 0 l0 -3.84 l2.72 0 l0 -6 l3.8 0 l0 6 l2.72 0 l0 3.84 z M114.19000000000001 39.92 c-2.88 0 -5.2 -2.36 -5.2 -5.24 l0 -12.48 c0 -2.64 2.16 -4.8 4.8 -4.8 l0.84 0 c2.64 0 4.8 2.16 4.8 4.8 l0 5.24 l-6.72 0.12 l0 7.12 c0 0.84 0.64 1.52 1.48 1.52 s1.52 -0.68 1.52 -1.52 l0 -2.48 l3.72 0 l0 2.48 c0 2.88 -2.36 5.24 -5.24 5.24 z M114.63000000000001 21.08 l-0.84 0 c-0.6 0 -1.08 0.52 -1.08 1.12 l0 1.68 l3 -0.08 l0 -1.6 c0 -0.6 -0.48 -1.12 -1.08 -1.12 z M127.65700000000001 18.28 c2.72 0 4.92 2.16 4.92 4.88 l0 1.92 l-3.8 0 l0 -1.92 c0 -0.64 -0.48 -1.12 -1.12 -1.12 l-0.84 0 c-0.6 0 -1.12 0.48 -1.12 1.12 l-0.08 16.88 l-3.76 0 l0.08 -16.88 l0 -5.76 l3.76 0 l0 1 c0.36 -0.08 0.76 -0.12 1.12 -0.12 l0.84 0 z"></path></g></svg>